HIERARCHY
ROOT Hips
{
	OFFSET 0.000000 0.794594 0.001814
	CHANNELS 6 Xposition Yposition Zposition Zrotation Xrotation Yrotation
	JOINT Spine
	{
		OFFSET -0.000000 0.051920 0.010783
		CHANNELS 3 Zrotation Xrotation Yrotation
		JOINT Chest
		{
			OFFSET -0.000000 0.111800 0.002642
			CHANNELS 3 Zrotation Xrotation Yrotation
			JOINT UpperChest
			{
				OFFSET 0.000011 0.124994 0.000757
				CHANNELS 3 Zrotation Xrotation Yrotation
				JOINT Neck
				{
					OFFSET 0.000112 0.117647 -0.020286
					CHANNELS 3 Zrotation Xrotation Yrotation
					JOINT Head
					{
						OFFSET 0.000009 0.074359 -0.000161
						CHANNELS 3 Zrotation Xrotation Yrotation
						JOINT LeftEye
						{
							OFFSET 0.019846 0.051735 0.040589
							CHANNELS 3 Zrotation Xrotation Yrotation
							End Site
							{
								OFFSET -0.000199 0.054090 0.042333
							}
						}
						JOINT RightEye
						{
							OFFSET -0.020226 0.051740 0.040395
							CHANNELS 3 Zrotation Xrotation Yrotation
							End Site
							{
								OFFSET -0.000199 0.054090 0.042333
							}
						}
					}
				}
				JOINT LeftShoulder
				{
					OFFSET 0.022480 0.089795 -0.017341
					CHANNELS 3 Zrotation Xrotation Yrotation
					JOINT LeftUpperArm
					{
						OFFSET 0.087730 -0.000010 0.000425
						CHANNELS 3 Zrotation Xrotation Yrotation
						JOINT LeftLowerArm
						{
							OFFSET 0.210364 0.001462 0.000713
							CHANNELS 3 Zrotation Xrotation Yrotation
							JOINT LeftHand
							{
								OFFSET 0.205444 0.001381 0.000710
								CHANNELS 3 Zrotation Xrotation Yrotation
								JOINT LeftIndexProximal
								{
									OFFSET 0.064499 0.001526 0.020305
									CHANNELS 3 Zrotation Xrotation Yrotation
									JOINT LeftIndexIntermediate
									{
										OFFSET 0.033222 0.000012 0.000212
										CHANNELS 3 Zrotation Xrotation Yrotation
										JOINT LeftIndexDistal
										{
											OFFSET 0.020455 0.000007 0.000130
											CHANNELS 3 Zrotation Xrotation Yrotation
											End Site
											{
												OFFSET 0.020455 0.000007 0.000130
											}
										}
									}
								}
								JOINT LeftLittleProximal
								{
									OFFSET 0.062853 -0.001934 -0.027845
									CHANNELS 3 Zrotation Xrotation Yrotation
									JOINT LeftLittleIntermediate
									{
										OFFSET 0.031399 0.000011 0.000200
										CHANNELS 3 Zrotation Xrotation Yrotation
										JOINT LeftLittleDistal
										{
											OFFSET 0.018096 0.000006 0.000115
											CHANNELS 3 Zrotation Xrotation Yrotation
											End Site
											{
												OFFSET 0.018096 0.000006 0.000115
											}
										}
									}
								}
								JOINT LeftMiddleProximal
								{
									OFFSET 0.066609 0.003802 0.003549
									CHANNELS 3 Zrotation Xrotation Yrotation
									JOINT LeftMiddleIntermediate
									{
										OFFSET 0.037005 0.000014 0.000236
										CHANNELS 3 Zrotation Xrotation Yrotation
										JOINT LeftMiddleDistal
										{
											OFFSET 0.022829 0.000008 0.000145
											CHANNELS 3 Zrotation Xrotation Yrotation
											End Site
											{
												OFFSET 0.022829 0.000008 0.000145
											}
										}
									}
								}
								JOINT LeftRingProximal
								{
									OFFSET 0.066900 0.003345 -0.012193
									CHANNELS 3 Zrotation Xrotation Yrotation
									JOINT LeftRingIntermediate
									{
										OFFSET 0.034327 0.000013 0.000219
										CHANNELS 3 Zrotation Xrotation Yrotation
										JOINT LeftRingDistal
										{
											OFFSET 0.019811 0.000007 0.000126
											CHANNELS 3 Zrotation Xrotation Yrotation
											End Site
											{
												OFFSET 0.019811 0.000007 0.000126
											}
										}
									}
								}
								JOINT LeftThumbProximal
								{
									OFFSET 0.001848 -0.006641 0.017858
									CHANNELS 3 Zrotation Xrotation Yrotation
									JOINT LeftThumbIntermediate
									{
										OFFSET 0.030327 -0.003605 0.035110
										CHANNELS 3 Zrotation Xrotation Yrotation
										JOINT LeftThumbDistal
										{
											OFFSET 0.019149 -0.004134 0.020871
											CHANNELS 3 Zrotation Xrotation Yrotation
											End Site
											{
												OFFSET 0.019148 -0.004134 0.020871
											}
										}
									}
								}
							}
						}
					}
				}
				JOINT RightShoulder
				{
					OFFSET -0.022291 0.089804 -0.017557
					CHANNELS 3 Zrotation Xrotation Yrotation
					JOINT RightUpperArm
					{
						OFFSET -0.087729 0.000010 -0.000425
						CHANNELS 3 Zrotation Xrotation Yrotation
						JOINT RightLowerArm
						{
							OFFSET -0.210400 0.000109 -0.000862
							CHANNELS 3 Zrotation Xrotation Yrotation
							JOINT RightHand
							{
								OFFSET -0.205447 0.000043 -0.000839
								CHANNELS 3 Zrotation Xrotation Yrotation
								JOINT RightIndexProximal
								{
									OFFSET -0.064690 0.001513 0.019688
									CHANNELS 3 Zrotation Xrotation Yrotation
									JOINT RightIndexIntermediate
									{
										OFFSET -0.033222 0.000005 -0.000106
										CHANNELS 3 Zrotation Xrotation Yrotation
										JOINT RightIndexDistal
										{
											OFFSET -0.020455 0.000003 -0.000065
											CHANNELS 3 Zrotation Xrotation Yrotation
											End Site
											{
												OFFSET -0.020455 0.000003 -0.000065
											}
										}
									}
								}
								JOINT RightLittleProximal
								{
									OFFSET -0.062584 -0.001948 -0.028445
									CHANNELS 3 Zrotation Xrotation Yrotation
									JOINT RightLittleIntermediate
									{
										OFFSET -0.031399 0.000005 -0.000100
										CHANNELS 3 Zrotation Xrotation Yrotation
										JOINT RightLittleDistal
										{
											OFFSET -0.018096 0.000003 -0.000057
											CHANNELS 3 Zrotation Xrotation Yrotation
											End Site
											{
												OFFSET -0.018096 0.000003 -0.000057
											}
										}
									}
								}
								JOINT RightMiddleProximal
								{
									OFFSET -0.066640 0.003789 0.002912
									CHANNELS 3 Zrotation Xrotation Yrotation
									JOINT RightMiddleIntermediate
									{
										OFFSET -0.037006 0.000005 -0.000118
										CHANNELS 3 Zrotation Xrotation Yrotation
										JOINT RightMiddleDistal
										{
											OFFSET -0.022829 0.000004 -0.000072
											CHANNELS 3 Zrotation Xrotation Yrotation
											End Site
											{
												OFFSET -0.022829 0.000003 -0.000072
											}
										}
									}
								}
								JOINT RightRingProximal
								{
									OFFSET -0.066782 0.003330 -0.012832
									CHANNELS 3 Zrotation Xrotation Yrotation
									JOINT RightRingIntermediate
									{
										OFFSET -0.034327 0.000005 -0.000109
										CHANNELS 3 Zrotation Xrotation Yrotation
										JOINT RightRingDistal
										{
											OFFSET -0.019810 0.000003 -0.000063
											CHANNELS 3 Zrotation Xrotation Yrotation
											End Site
											{
												OFFSET -0.019810 0.000003 -0.000063
											}
										}
									}
								}
								JOINT RightThumbProximal
								{
									OFFSET -0.002018 -0.006641 0.017839
									CHANNELS 3 Zrotation Xrotation Yrotation
									JOINT RightThumbIntermediate
									{
										OFFSET -0.032510 -0.005698 0.032803
										CHANNELS 3 Zrotation Xrotation Yrotation
										JOINT RightThumbDistal
										{
											OFFSET -0.020784 -0.005080 0.019013
											CHANNELS 3 Zrotation Xrotation Yrotation
											End Site
											{
												OFFSET -0.020784 -0.005080 0.019014
											}
										}
									}
								}
							}
						}
					}
				}
			}
		}
	}
	JOINT LeftUpperLeg
	{
		OFFSET 0.077122 -0.039594 -0.005714
		CHANNELS 3 Zrotation Xrotation Yrotation
		JOINT LeftLowerLeg
		{
			OFFSET 0.000014 -0.343085 0.003817
			CHANNELS 3 Zrotation Xrotation Yrotation
			JOINT LeftFoot
			{
				OFFSET 0.000000 -0.401029 -0.031329
				CHANNELS 3 Zrotation Xrotation Yrotation
				JOINT LeftToes
				{
					OFFSET -0.000000 -0.001594 0.127952
					CHANNELS 3 Zrotation Xrotation Yrotation
					End Site
					{
						OFFSET -0.000000 -0.001594 0.127952
					}
				}
			}
		}
	}
	JOINT RightUpperLeg
	{
		OFFSET -0.077122 -0.039594 -0.005714
		CHANNELS 3 Zrotation Xrotation Yrotation
		JOINT RightLowerLeg
		{
			OFFSET -0.000010 -0.343087 0.003715
			CHANNELS 3 Zrotation Xrotation Yrotation
			JOINT RightFoot
			{
				OFFSET 0.000000 -0.401029 -0.031326
				CHANNELS 3 Zrotation Xrotation Yrotation
				JOINT RightToes
				{
					OFFSET -0.000000 -0.001593 0.127952
					CHANNELS 3 Zrotation Xrotation Yrotation
					End Site
					{
						OFFSET 0.000000 -0.001593 0.127952
					}
				}
			}
		}
	}
}
MOTION
Frames: 4
Frame Time: 0.016667
-0.000888 0.790846 -0.045615 0.774349 18.154330 -14.884519 0.195094 -4.064617 4.214864 1.442438 -6.401800 2.876463 -0.589372 -5.882799 3.909454 -5.053037 -2.311184 -1.449564 -1.756964 6.839699 5.391841 -0.521684 1.746351 -1.765865 -0.620294 1.676094 -2.090601 -4.976131 -0.069480 -0.705365 -81.559439 -30.676992 -75.931445 24.421169 -1.703993 -124.703108 356.877712 -61.975566 357.745173 -51.010322 10.804926 1.844355 -48.146424 -1.085401 -1.909382 -27.082141 -0.812986 -0.963774 -73.133772 -5.045153 -7.413791 -72.012679 0.082364 0.061965 -72.011005 0.082413 0.061963 -59.655726 1.315730 2.569286 -63.340736 0.077786 0.049244 -52.503944 0.069132 0.035126 -67.683637 -0.137934 -0.614818 -67.683602 0.080438 0.055303 -67.682687 0.080409 0.055309 -7.278283 8.935544 17.956267 -6.614888 4.957547 20.098228 -3.996096 3.171631 13.244030 3.472130 -0.061191 0.504256 69.568666 11.901788 -5.071261 -0.835027 -0.168707 22.311730 3.898800 30.873766 7.198213 31.942336 -2.884276 0.497776 31.579243 -0.318595 5.576638 31.579564 -0.318579 5.576671 31.118373 4.156804 9.335122 31.713303 0.652157 4.407510 31.713634 0.652157 4.407560 31.915152 -1.335053 1.655218 31.713723 0.652318 4.407729 31.713695 0.652218 4.407757 31.713617 0.651948 4.407346 31.713729 0.652266 4.407714 31.713682 0.652172 4.407779 -6.913852 -4.802328 -13.871820 4.856307 1.366940 -23.928712 3.634911 0.788223 -19.580696 5.806273 -30.778478 2.835650 0.002302 19.454066 0.028843 -5.590230 -3.844455 1.092606 0.000000 0.000001 0.000001 5.923212 -24.816878 32.236157 -0.001616 13.094992 -0.014861 8.282532 1.108888 -0.355517 -0.000000 0.000000 0.000002 
-0.002102 0.791178 -0.045492 0.415263 18.161505 -14.692526 0.283693 -4.101799 4.378734 1.465934 -6.406980 3.038369 -0.481829 -6.083558 4.094547 -5.051741 -2.312861 -1.450450 -1.711115 7.177089 5.842394 -0.562286 1.755153 -1.903777 -0.655455 1.686805 -2.209945 -4.976137 -0.069483 -0.705367 -81.426155 -29.833672 -76.011338 24.312019 -1.648265 -124.494650 357.611329 -60.025868 358.794263 -51.892728 11.272689 2.115293 -48.483620 -1.086879 -1.925161 -27.942485 -0.830828 -1.000062 -73.223897 -5.164790 -7.328604 -72.062061 0.082388 0.062041 -72.060470 0.082433 0.062042 -60.003458 1.354925 2.689450 -63.235551 0.077719 0.049107 -53.949345 0.070434 0.036912 -67.702160 -0.103978 -0.511453 -67.702488 0.080456 0.055334 -67.701641 0.080418 0.055331 -7.083132 7.858076 18.003883 -6.784760 5.042116 20.563702 -3.996108 3.171646 13.244025 3.472123 -0.061189 0.504257 69.546796 11.335244 -5.340890 -0.838911 -0.170808 22.423195 3.919289 30.865645 7.173116 31.942322 -2.884273 0.497771 31.579267 -0.318592 5.576642 31.579567 -0.318588 5.576664 31.118403 4.156805 9.335132 31.713316 0.652168 4.407518 31.713620 0.652143 4.407551 31.915155 -1.335055 1.655203 31.713726 0.652311 4.407751 31.713695 0.652205 4.407743 31.713627 0.651938 4.407341 31.713736 0.652293 4.407710 31.713644 0.652172 4.407784 -6.913853 -4.802311 -13.871839 4.856292 1.366908 -23.928709 3.634918 0.788221 -19.580694 6.241343 -30.702277 2.900618 0.002514 19.486250 0.030303 -5.696254 -3.861953 0.960981 0.000000 0.000000 -0.000000 6.137891 -24.371925 32.218556 -0.001511 12.427307 -0.012187 8.174215 1.399682 -0.541194 -0.000000 0.000001 0.000003 
-0.003182 0.791451 -0.045371 0.086628 18.163889 -14.532066 0.363161 -4.139325 4.520812 1.485334 -6.412226 3.169158 -0.379915 -6.259032 4.265707 -5.050696 -2.313641 -1.451725 -1.663889 7.528281 6.289325 -0.594976 1.762152 -2.015234 -0.683719 1.695321 -2.306360 -4.976130 -0.069478 -0.705366 -81.326659 -29.065433 -76.164594 24.231337 -1.594236 -124.299512 358.191922 -58.194892 359.682871 -52.723487 11.707181 2.383807 -48.800711 -1.088190 -1.939980 -28.783192 -0.847725 -1.035765 -73.308653 -5.277548 -7.248877 -72.108541 0.082420 0.062110 -72.107004 0.082450 0.062098 -60.330460 1.390515 2.802940 -63.125004 0.077631 0.048952 -55.308334 0.071620 0.038630 -67.719639 -0.072090 -0.414250 -67.720240 0.080463 0.055359 -67.719447 0.080425 0.055359 -6.891564 6.840144 18.063608 -6.945125 5.120349 21.001623 -3.996093 3.171643 13.244041 3.472130 -0.061189 0.504258 69.535137 10.855332 -5.573978 -0.844191 -0.173763 22.579280 3.938258 30.859153 7.152537 31.942336 -2.884298 0.497774 31.579260 -0.318565 5.576639 31.579547 -0.318581 5.576674 31.118383 4.156800 9.335119 31.713303 0.652163 4.407515 31.713634 0.652157 4.407546 31.915159 -1.335068 1.655212 31.713726 0.652309 4.407734 31.713706 0.652225 4.407758 31.713630 0.651945 4.407338 31.713706 0.652270 4.407713 31.713668 0.652189 4.407769 -6.913858 -4.802309 -13.871826 4.856298 1.366906 -23.928728 3.634912 0.788226 -19.580689 6.644800 -30.638996 2.973561 0.002561 19.539450 0.031659 -5.791183 -3.890994 0.841736 -0.000000 0.000000 0.000000 6.335487 -23.962689 32.214700 -0.000318 11.814034 -0.009707 8.078352 1.668299 -0.706568 0.000000 -0.000000 -0.000000 
-0.004114 0.791658 -0.045251 -0.207627 18.163414 -14.407306 0.433430 -4.175663 4.635288 1.500024 -6.417693 3.265803 -0.285089 -6.406881 4.421572 -5.049728 -2.314412 -1.452990 -1.613913 7.877386 6.738266 -0.619079 1.767300 -2.097836 -0.704563 1.701598 -2.377820 -4.976145 -0.069491 -0.705371 -81.253979 -28.404417 -76.367396 24.155707 -1.551839 -124.141120 358.644163 -56.498071 360.432088 -53.495824 12.105711 2.645052 -49.095150 -1.089340 -1.953775 -29.600261 -0.863637 -1.070695 -73.387316 -5.382502 -7.175201 -72.151680 0.082438 0.062166 -72.150157 0.082472 0.062167 -60.634075 1.422425 2.908748 -63.008891 0.077559 0.048793 -56.570133 0.072679 0.040242 -67.735888 -0.042555 -0.323982 -67.736694 0.080465 0.055385 -67.736024 0.080434 0.055389 -6.703456 5.889603 18.133497 -7.094511 5.191898 21.408487 -3.996132 3.171658 13.244030 3.472123 -0.061199 0.504258 69.537036 10.467095 -5.768383 -0.851261 -0.177714 22.786693 3.957313 30.852846 7.131973 31.942350 -2.884278 0.497768 31.579250 -0.318570 5.576635 31.579550 -0.318590 5.576683 31.118410 4.156807 9.335115 31.713303 0.652141 4.407518 31.713610 0.652157 4.407534 31.915179 -1.335032 1.655210 31.713709 0.652306 4.407746 31.713688 0.652211 4.407755 31.713637 0.651932 4.407338 31.713719 0.652294 4.407691 31.713637 0.652174 4.407764 -6.913847 -4.802318 -13.871820 4.856293 1.366929 -23.928707 3.634917 0.788221 -19.580689 7.013464 -30.594166 3.056303 0.002728 19.619109 0.032910 -5.873798 -3.933527 0.736153 0.000000 -0.000000 -0.000000 6.518593 -23.595039 32.228418 -0.001089 11.269053 -0.007530 7.996051 1.906679 -0.849288 0.000001 -0.000000 -0.000001 
